<?xml version="1.0" encoding="UTF-8"?>
<svg xmlns="http://www.w3.org/2000/svg" width="32" height="32" viewBox="0 0 32 32" role="img" aria-label="ZeroCoin logo">
  <!-- Transparent artboard -->
  <rect width="32" height="32" fill="none"/>

  <!-- Outer ring -->
  <circle cx="16" cy="16" r="13" fill="none" stroke="#123e63" stroke-width="2" stroke-linecap="round" stroke-linejoin="round"/>

  <!-- Inner wavy mark (vector path) -->
  <path d="M5.2 18.4
           C6.6 16.4 8.6 15.2 11.0 15.2
           C13.4 15.2 14.2 16.8 16.6 17.0
           C19.0 17.2 21.4 16.8 23.2 15.4
           C24.4 14.4 26.4 13.4 27.4 13.8
           C26.4 15.2 24.8 16.8 23.8 17.6
           C22.4 18.8 20.8 19.0 19.0 19.0
           C16.6 19.0 15.2 17.8 12.8 17.4
           C10.4 17.0 7.8 17.6 6.0 18.8
           C5.6 18.4 5.4 18.0 5.2 18.4 Z"
        fill="#123e63" fill-rule="evenodd" />

</svg>
